<svg width="23" height="20" viewBox="0 0 23 20" fill="none" xmlns="http://www.w3.org/2000/svg">
<path d="M11.2337 10.7093C10.8702 10.7093 10.5755 11.0041 10.5755 11.3676V16.3211C10.5755 16.6846 10.8702 16.9793 11.2337 16.9793C11.5972 16.9793 11.892 16.6846 11.892 16.3211V11.3676C11.892 11.0041 11.5972 10.7093 11.2337 10.7093Z" fill="#2B441D"/>
<path d="M7.73968 11.3134C7.70971 10.9511 7.39183 10.6817 7.02945 10.7116C6.66717 10.7416 6.39773 11.0595 6.42766 11.4218L6.83703 16.3753C6.867 16.7377 7.18497 17.0071 7.54726 16.9771C7.90954 16.9472 8.17898 16.6292 8.14905 16.2669L7.73968 11.3134Z" fill="#2B441D"/>
<path d="M15.4383 10.7116C15.0759 10.6816 14.758 10.9511 14.7281 11.3134L14.3187 16.2669C14.2888 16.6292 14.5582 16.9472 14.9205 16.9771C14.9389 16.9787 14.9573 16.9794 14.9754 16.9794C15.3144 16.9794 15.6023 16.7192 15.6307 16.3754L16.0401 11.4219C16.0701 11.0596 15.8006 10.7416 15.4383 10.7116Z" fill="#2B441D"/>
<path d="M21.8092 7.68882C20.5073 7.68882 20.6773 7.68882 19.9495 7.68882L16.7286 0.39239C16.6233 0.153849 16.3871 0 16.1264 0H14.5508C14.1873 0 13.8926 0.29471 13.8926 0.658225C13.8926 1.02174 14.1873 1.31645 14.5508 1.31645H15.6974L18.5105 7.68886H3.95708L6.77007 1.31645H7.9167C8.28021 1.31645 8.57492 1.02174 8.57492 0.658225C8.57492 0.29471 8.28021 0 7.9167 0H6.34112C6.08042 0 5.84425 0.153893 5.73894 0.39239L2.51802 7.68882C1.69322 7.68882 2.65585 7.68882 0.658225 7.68882C0.294709 7.68882 0 7.98353 0 8.34704C0 8.71056 0.294709 9.00527 0.658225 9.00527H1.34826L2.97987 19.4434C3.02994 19.7638 3.30591 20 3.6302 20H18.8373C19.1616 20 19.4375 19.7638 19.4876 19.4434L21.1192 9.00527H21.8092C22.1728 9.00527 22.4675 8.71056 22.4675 8.34704C22.4675 7.98353 22.1728 7.68882 21.8092 7.68882ZM18.274 18.6835H4.19355L2.68073 9.00527H19.7868L18.274 18.6835Z" fill="#2B441D"/>
</svg>
