<svg width="11" height="11" viewBox="0 0 11 11" fill="none" xmlns="http://www.w3.org/2000/svg">
<path d="M10.3124 0H0.687648C0.505426 0.000499412 0.33081 0.0731082 0.201959 0.201959C0.0731082 0.33081 0.000499412 0.505426 0 0.687648V10.3124C0.000499412 10.4946 0.0731082 10.6692 0.201959 10.798C0.33081 10.9269 0.505426 10.9995 0.687648 11H5.86381V6.74638H4.42891V5.0806H5.86381V3.84463C5.86381 2.87076 6.08877 2.31369 6.57488 1.9546C6.99144 1.64709 7.53432 1.62746 7.86573 1.63763C8.22055 1.64851 9.2881 1.70859 9.2881 1.70859V3.21707L8.29814 3.2076C8.29814 3.2076 7.88512 3.19317 7.73042 3.42854C7.59843 3.63055 7.59582 3.97639 7.59582 3.97639V5.07185H9.21973L9.03712 6.74709H7.58707V11H10.3124C10.4946 10.9995 10.6692 10.9269 10.798 10.798C10.9269 10.6692 10.9995 10.4946 11 10.3124V0.687648C10.9995 0.505426 10.9269 0.33081 10.798 0.201959C10.6692 0.0731082 10.4946 0.000499412 10.3124 0Z" fill="#2B441D"/>
</svg>
