<svg width="11" height="11" viewBox="0 0 11 11" fill="none" xmlns="http://www.w3.org/2000/svg">
<path d="M9.98571 7.90779C9.98571 9.07007 9.04232 10.0135 7.88004 10.0135H3.11996C1.95768 10.0135 1.01121 9.07007 1.01121 7.90779V3.1477C1.01121 1.98234 2.35714 2.35714 3.11996 2.35714C3.88277 2.35714 7.88004 2.35714 7.88004 2.35714C9.04232 2.35714 9.98571 1.98234 9.98571 3.1477V7.90779ZM7.82455 0H3.17545C1.42124 0 0 1.42124 0 3.17545V7.82455C0 9.57876 1.42124 11 3.17545 11H7.82455C9.57876 11 11 9.57876 11 7.82455V3.17545C11 1.42124 9.57876 0 7.82455 0Z" fill="#2B441D"/>
<path d="M0.785714 1.57143H10.2143V3.14286H0.785714V1.57143Z" fill="#2B441D"/>
<path d="M5.4997 8.16015C4.47616 8.16015 3.64992 7.33083 3.64992 6.31038C3.64992 5.28683 4.47616 4.4606 5.4997 4.4606C6.52016 4.4606 7.34948 5.28683 7.34948 6.31038C7.34948 7.33083 6.52016 8.16015 5.4997 8.16015ZM5.4997 3.45556C3.92122 3.45556 2.64488 4.7319 2.64488 6.31038C2.64488 7.88577 3.92122 9.1652 5.4997 9.1652C7.07509 9.1652 8.35452 7.88577 8.35452 6.31038C8.35452 4.7319 7.07509 3.45556 5.4997 3.45556Z" fill="#2B441D"/>
<path d="M8.52306 3.14286C8.15619 3.14286 7.85714 3.4419 7.85714 3.80878C7.85714 4.17565 8.15619 4.47161 8.52306 4.47161C8.88993 4.47161 9.1859 4.17565 9.1859 3.80878C9.1859 3.4419 8.88993 3.14286 8.52306 3.14286Z" fill="#2B441D"/>
</svg>
