<svg width="107" height="17" viewBox="0 0 107 17" fill="none" xmlns="http://www.w3.org/2000/svg">
<path d="M0.749375 9.336V8.088H15.4694V9.336H0.749375ZM25.0854 12.472V13H20.7814V12.472H22.0934V2.488H20.7814V1.96H30.8134V2.488H29.5014V12.472H30.8134V13H26.5094V12.472H27.7734V2.488H23.8054V12.472H25.0854ZM35.9964 13.176C34.8124 13.176 33.8844 12.776 33.2124 11.976C32.551 11.1653 32.2204 10.1573 32.2204 8.952C32.2204 7.8 32.5404 6.81867 33.1804 6.008C33.831 5.19733 34.7164 4.792 35.8364 4.792C36.9457 4.792 37.7724 5.144 38.3164 5.848C38.8604 6.552 39.1324 7.47467 39.1324 8.616C39.1324 8.63733 39.127 8.67467 39.1164 8.728C39.1164 8.78133 39.111 8.81867 39.1004 8.84H33.9484V9.016C33.9484 9.48533 33.9697 9.896 34.0124 10.248C34.055 10.6 34.1457 10.9733 34.2844 11.368C34.423 11.7627 34.647 12.0667 34.9564 12.28C35.2657 12.4933 35.655 12.6 36.1244 12.6C36.775 12.6 37.287 12.424 37.6604 12.072C38.0444 11.72 38.3377 11.2133 38.5404 10.552L39.0364 10.664C38.8657 11.4213 38.5084 12.0293 37.9644 12.488C37.431 12.9467 36.775 13.176 35.9964 13.176ZM35.8044 5.336C35.431 5.336 35.1164 5.42667 34.8604 5.608C34.615 5.78933 34.4284 6.05067 34.3004 6.392C34.183 6.72267 34.103 7.032 34.0604 7.32C34.0177 7.59733 33.9857 7.928 33.9644 8.312H37.4524C37.4737 7.26667 37.3457 6.50933 37.0684 6.04C36.791 5.57067 36.3697 5.336 35.8044 5.336ZM45.2373 12.616C45.5893 12.616 45.8879 12.5307 46.1333 12.36C46.3893 12.1787 46.5813 11.9707 46.7093 11.736C46.8373 11.5013 46.9386 11.1973 47.0133 10.824C47.0879 10.4507 47.1306 10.1413 47.1413 9.896C47.1626 9.64 47.1733 9.336 47.1733 8.984C47.1839 7.75733 47.0346 6.84533 46.7253 6.248C46.4159 5.68267 45.9306 5.4 45.2693 5.4C44.8853 5.4 44.5493 5.51733 44.2613 5.752C43.9839 5.976 43.7759 6.27467 43.6373 6.648C43.5093 7.01067 43.4133 7.368 43.3493 7.72C43.2959 8.072 43.2693 8.42933 43.2693 8.792V9.72C43.2693 10.1253 43.2906 10.4827 43.3333 10.792C43.3866 11.0907 43.4773 11.3893 43.6053 11.688C43.7333 11.9867 43.9359 12.216 44.2133 12.376C44.4906 12.536 44.8319 12.616 45.2373 12.616ZM43.2693 12.072V16.408H45.0453V17H40.3733V16.408H41.6213V5.576H40.3733V4.984C41.1519 4.984 41.7119 4.968 42.0533 4.936C42.3839 4.92533 42.6239 4.86667 42.7733 4.76L42.9973 4.904V7.24C43.0933 6.504 43.3706 5.912 43.8293 5.464C44.2986 5.016 44.8959 4.792 45.6213 4.792C46.3146 4.792 46.9173 5.01067 47.4293 5.448C47.9519 5.87467 48.3253 6.39733 48.5493 7.016C48.7839 7.624 48.9013 8.26933 48.9013 8.952C48.9013 10.072 48.5866 11.0587 47.9573 11.912C47.3279 12.7547 46.4693 13.176 45.3813 13.176C44.4533 13.176 43.7493 12.808 43.2693 12.072ZM54.1526 13.176C52.9686 13.176 52.0406 12.776 51.3686 11.976C50.7073 11.1653 50.3766 10.1573 50.3766 8.952C50.3766 7.8 50.6966 6.81867 51.3366 6.008C51.9873 5.19733 52.8726 4.792 53.9926 4.792C55.102 4.792 55.9286 5.144 56.4726 5.848C57.0166 6.552 57.2886 7.47467 57.2886 8.616C57.2886 8.63733 57.2833 8.67467 57.2726 8.728C57.2726 8.78133 57.2673 8.81867 57.2566 8.84H52.1046V9.016C52.1046 9.48533 52.126 9.896 52.1686 10.248C52.2113 10.6 52.302 10.9733 52.4406 11.368C52.5793 11.7627 52.8033 12.0667 53.1126 12.28C53.422 12.4933 53.8113 12.6 54.2806 12.6C54.9313 12.6 55.4433 12.424 55.8166 12.072C56.2006 11.72 56.494 11.2133 56.6966 10.552L57.1926 10.664C57.022 11.4213 56.6646 12.0293 56.1206 12.488C55.5873 12.9467 54.9313 13.176 54.1526 13.176ZM53.9606 5.336C53.5873 5.336 53.2726 5.42667 53.0166 5.608C52.7713 5.78933 52.5846 6.05067 52.4566 6.392C52.3393 6.72267 52.2593 7.032 52.2166 7.32C52.174 7.59733 52.142 7.928 52.1206 8.312H55.6086C55.63 7.26667 55.502 6.50933 55.2246 6.04C54.9473 5.57067 54.526 5.336 53.9606 5.336ZM61.4255 11.64V12.472H62.6895V13H58.5295V12.472H59.7775V5.496H58.5295V4.984H62.6895V5.496H61.4255V10.744L64.8975 6.28V5.496H63.6335V4.984H67.7775V5.496H66.5455V12.472H67.7775V13H63.6335V12.472H64.8975V7.176L61.4255 11.64ZM64.8975 0.407999C65.1748 0.407999 65.4042 0.498666 65.5855 0.679999C65.7455 0.871999 65.8255 1.11733 65.8255 1.416C65.8255 2.12 65.5642 2.69067 65.0415 3.128C64.5188 3.56533 63.9002 3.784 63.1855 3.784C62.4708 3.784 61.8522 3.56533 61.3295 3.128C60.8068 2.69067 60.5455 2.12 60.5455 1.416C60.5455 1.11733 60.6255 0.877333 60.7855 0.695999C60.9562 0.503999 61.1855 0.407999 61.4735 0.407999C61.7295 0.407999 61.9428 0.482666 62.1135 0.631999C62.2628 0.781332 62.3375 0.978666 62.3375 1.224C62.3375 1.49067 62.2468 1.704 62.0655 1.864C61.8842 2.01333 61.6602 2.088 61.3935 2.088C61.2868 2.088 61.1588 2.072 61.0095 2.04C61.4255 2.59467 62.1508 2.872 63.1855 2.872C64.2842 2.872 65.0308 2.58933 65.4255 2.024C65.2548 2.06667 65.0895 2.088 64.9295 2.088C64.3322 2.088 64.0335 1.8 64.0335 1.224C64.0335 0.967999 64.1135 0.770666 64.2735 0.631999C64.4228 0.482666 64.6308 0.407999 64.8975 0.407999ZM73.239 12.472H74.631V13H70.199V12.472H71.591V5.496H70.919C70.3003 5.496 69.863 5.66667 69.607 6.008C69.351 6.33867 69.223 6.82933 69.223 7.48V7.88H68.695V4.984H76.135V7.88H75.623V7.48C75.623 6.82933 75.4897 6.33867 75.223 6.008C74.967 5.67733 74.5297 5.50667 73.911 5.496H73.239V12.472ZM79.9411 11.64V12.472H81.2051V13H77.0451V12.472H78.2931V5.496H77.0451V4.984H81.2051V5.496H79.9411V10.744L83.4131 6.28V5.496H82.1491V4.984H86.2931V5.496H85.0611V12.472H86.2931V13H82.1491V12.472H83.4131V7.176L79.9411 11.64ZM91.5306 9.336V8.088H106.251V9.336H91.5306Z" fill="#97AA12"/>
</svg>
