<svg width="72" height="29" viewBox="0 0 72 29" fill="none" xmlns="http://www.w3.org/2000/svg">
<path fill-rule="evenodd" clip-rule="evenodd" d="M72 0H9.88243L0 14.5L9.98652 29H72V0ZM9 16.5C10.1046 16.5 11 15.6046 11 14.5C11 13.3954 10.1046 12.5 9 12.5C7.89543 12.5 7 13.3954 7 14.5C7 15.6046 7.89543 16.5 9 16.5Z" fill="#B4C730"/>
<path d="M23.132 12.58L21.992 15.952H24.272L23.132 12.58ZM22.484 18.604V19H19.856V18.604H20.624L23.372 10.6H23.804L26.528 18.604H27.356V19H23.744V18.604H25.172L24.404 16.348H21.86L21.092 18.604H22.484ZM33.6873 19.132C33.2953 19.132 32.9833 19.012 32.7513 18.772C32.5273 18.548 32.2993 18.064 32.0673 17.32C31.8033 16.416 31.5393 15.796 31.2753 15.46C31.0113 15.132 30.6953 14.968 30.3273 14.968H29.9193V18.604H30.9753V19H27.6993V18.604H28.6833V11.116H27.6993V10.72H30.8913V11.116H29.9193V14.584H30.7473C31.0193 14.584 31.2473 14.468 31.4313 14.236C31.5913 14.02 31.7513 13.52 31.9113 12.736C31.9993 12.328 32.0713 12.028 32.1273 11.836C32.1753 11.636 32.2353 11.472 32.3073 11.344C32.5473 10.84 32.9153 10.588 33.4113 10.588C33.7713 10.588 34.0513 10.688 34.2513 10.888C34.4513 11.08 34.5513 11.356 34.5513 11.716C34.5513 12.3 34.2993 12.592 33.7953 12.592C33.5473 12.592 33.3513 12.52 33.2073 12.376C33.0553 12.248 32.9793 12.056 32.9793 11.8C32.9793 11.592 33.0393 11.416 33.1593 11.272C33.2873 11.128 33.4553 11.044 33.6633 11.02C33.6073 10.98 33.5033 10.96 33.3513 10.96C33.1353 10.96 32.9553 11.068 32.8113 11.284C32.6673 11.508 32.5193 11.984 32.3673 12.712C32.1993 13.496 32.0313 14.028 31.8633 14.308C31.6873 14.58 31.4673 14.74 31.2033 14.788C31.7073 14.996 32.0593 15.156 32.2593 15.268C32.6273 15.492 32.9073 15.8 33.0993 16.192C33.2113 16.456 33.3353 16.84 33.4713 17.344C33.6553 17.952 33.7833 18.304 33.8553 18.4C33.9433 18.512 34.0473 18.568 34.1673 18.568C34.3033 18.568 34.4073 18.444 34.4793 18.196C34.5433 17.924 34.5753 17.548 34.5753 17.068H34.9233C34.9233 17.316 34.9193 17.512 34.9113 17.656C34.9033 17.8 34.8753 17.98 34.8273 18.196C34.7873 18.404 34.7273 18.568 34.6473 18.688C34.5673 18.808 34.4433 18.912 34.2753 19C34.1153 19.088 33.9193 19.132 33.6873 19.132ZM43.2792 18.604V21.16H42.8952V20.776C42.8952 20.104 42.7672 19.64 42.5112 19.384C42.2632 19.128 41.8072 19 41.1432 19H35.5392V18.604H36.5232V11.116H35.5392V10.72H38.6592V11.116H37.8072V18.604H40.7832V11.116H39.9432V10.72H43.0632V11.116H42.0792V18.604H43.2792ZM46.2798 18.604H47.3358V19H44.0118V18.604H44.9958V11.116H44.0118V10.72H47.3358V11.116H46.2798V16.912L49.6518 11.836V11.116H48.5958V10.72H51.9318V11.116H50.9478V18.604H51.9318V19H48.5958V18.604H49.6518V12.628L46.2798 17.704V18.604ZM54.9335 12.868C54.9335 13.508 55.1015 13.968 55.4375 14.248C55.7735 14.528 56.2655 14.668 56.9135 14.668H57.4175V11.116H56.9495C56.2935 11.116 55.7935 11.252 55.4495 11.524C55.1055 11.788 54.9335 12.236 54.9335 12.868ZM53.8415 19.132C53.6095 19.132 53.4095 19.088 53.2415 19C53.0815 18.912 52.9575 18.812 52.8695 18.7C52.7895 18.58 52.7255 18.416 52.6775 18.208C52.6375 17.992 52.6135 17.812 52.6055 17.668C52.5975 17.516 52.5935 17.316 52.5935 17.068H52.9535C52.9535 17.588 52.9895 17.964 53.0615 18.196C53.1255 18.436 53.2415 18.556 53.4095 18.556C53.5135 18.556 53.6095 18.488 53.6975 18.352C53.7855 18.224 53.9175 17.852 54.0935 17.236C54.3175 16.516 54.5575 16.024 54.8135 15.76C55.0695 15.496 55.5575 15.232 56.2775 14.968C55.8295 14.96 55.4055 14.888 55.0055 14.752C54.6135 14.608 54.2735 14.372 53.9855 14.044C53.6975 13.716 53.5535 13.32 53.5535 12.856C53.5535 12.48 53.6535 12.148 53.8535 11.86C54.0615 11.572 54.3295 11.348 54.6575 11.188C54.9855 11.028 55.3255 10.912 55.6775 10.84C56.0295 10.76 56.3775 10.72 56.7215 10.72H59.6375V11.116H58.6535V18.604H59.6375V19H56.3015V18.604H57.4175V15.016H57.0935C56.7175 15.016 56.4055 15.164 56.1575 15.46C55.9175 15.748 55.6695 16.336 55.4135 17.224C55.2855 17.64 55.1895 17.928 55.1255 18.088C54.8615 18.784 54.4335 19.132 53.8415 19.132Z" fill="white"/>
</svg>
