<svg width="98" height="29" viewBox="0 0 98 29" fill="none" xmlns="http://www.w3.org/2000/svg">
<path fill-rule="evenodd" clip-rule="evenodd" d="M97 0H11.9358L0 14.5L12.0405 29L97 28.9999V0ZM11.5 17C12.8807 17 14 15.8807 14 14.5C14 13.1193 12.8807 12 11.5 12C10.1193 12 9 13.1193 9 14.5C9 15.8807 10.1193 17 11.5 17Z" fill="#53BAB6"/>
<path d="M25.732 18.604V19H22.504V18.604H23.488V11.116H22.504V10.72H25.732V11.116H24.772V14.584H27.928V11.116H26.968V10.72H30.196V11.116H29.212V18.604H30.196V19H26.968V18.604H27.928V14.968H24.772V18.604H25.732ZM34.6313 10.588C35.3753 10.588 36.0153 10.804 36.5513 11.236C37.0953 11.66 37.4873 12.188 37.7273 12.82C37.9753 13.452 38.0993 14.132 38.0993 14.86C38.0993 15.588 37.9753 16.268 37.7273 16.9C37.4873 17.532 37.0953 18.064 36.5513 18.496C36.0153 18.92 35.3753 19.132 34.6313 19.132C33.8953 19.132 33.2553 18.916 32.7113 18.484C32.1673 18.052 31.7713 17.52 31.5233 16.888C31.2833 16.256 31.1633 15.58 31.1633 14.86C31.1633 14.14 31.2833 13.464 31.5233 12.832C31.7713 12.2 32.1673 11.668 32.7113 11.236C33.2553 10.804 33.8953 10.588 34.6313 10.588ZM35.4593 11.164C35.2193 11.044 34.9433 10.984 34.6313 10.984C34.3193 10.984 34.0433 11.044 33.8033 11.164C33.5633 11.284 33.3713 11.456 33.2273 11.68C33.0833 11.904 32.9633 12.136 32.8673 12.376C32.7793 12.616 32.7153 12.9 32.6753 13.228C32.6353 13.556 32.6073 13.836 32.5913 14.068C32.5833 14.3 32.5793 14.564 32.5793 14.86C32.5793 15.156 32.5833 15.42 32.5913 15.652C32.6073 15.884 32.6353 16.164 32.6753 16.492C32.7153 16.82 32.7793 17.104 32.8673 17.344C32.9633 17.584 33.0833 17.816 33.2273 18.04C33.3713 18.264 33.5633 18.436 33.8033 18.556C34.0433 18.676 34.3193 18.736 34.6313 18.736C34.9433 18.736 35.2193 18.676 35.4593 18.556C35.7073 18.436 35.8993 18.264 36.0353 18.04C36.1793 17.816 36.2953 17.588 36.3833 17.356C36.4793 17.116 36.5473 16.832 36.5873 16.504C36.6273 16.168 36.6513 15.888 36.6593 15.664C36.6753 15.432 36.6833 15.164 36.6833 14.86C36.6833 14.556 36.6753 14.292 36.6593 14.068C36.6513 13.836 36.6273 13.556 36.5873 13.228C36.5473 12.892 36.4793 12.608 36.3833 12.376C36.2953 12.136 36.1793 11.904 36.0353 11.68C35.8993 11.456 35.7073 11.284 35.4593 11.164ZM42.2783 19H39.0743V18.604H40.0583V11.116H39.0743V10.72H41.6183C43.9303 10.72 45.0863 11.404 45.0863 12.772C45.0863 13.308 44.9063 13.752 44.5463 14.104C44.1943 14.448 43.7463 14.66 43.2023 14.74C43.8583 14.836 44.4023 15.048 44.8343 15.376C45.2663 15.696 45.4823 16.152 45.4823 16.744C45.4823 18.248 44.4143 19 42.2783 19ZM43.7183 12.784C43.7183 12.168 43.5463 11.736 43.2023 11.488C42.8583 11.24 42.3623 11.116 41.7143 11.116H41.3423V14.596H42.0983C43.1783 14.596 43.7183 13.992 43.7183 12.784ZM44.0783 16.732C44.0783 15.548 43.4423 14.956 42.1703 14.956H41.3423V18.604H42.1463C42.8183 18.604 43.3063 18.46 43.6103 18.172C43.9223 17.876 44.0783 17.396 44.0783 16.732ZM48.6548 18.604H49.7108V19H46.3868V18.604H47.3708V11.116H46.3868V10.72H49.7108V11.116H48.6548V16.912L52.0268 11.836V11.116H50.9708V10.72H54.3068V11.116H53.3228V18.604H54.3068V19H50.9708V18.604H52.0268V12.628L48.6548 17.704V18.604ZM58.5445 18.604V19H55.3165V18.604H56.3005V11.116H55.3165V10.72H58.5445V11.116H57.5845V14.584H60.7405V11.116H59.7805V10.72H63.0085V11.116H62.0245V18.604H63.0085V19H59.7805V18.604H60.7405V14.968H57.5845V18.604H58.5445ZM69.9998 19.132C69.6078 19.132 69.2958 19.012 69.0638 18.772C68.8398 18.548 68.6118 18.064 68.3798 17.32C68.1158 16.416 67.8518 15.796 67.5878 15.46C67.3238 15.132 67.0078 14.968 66.6398 14.968H66.2318V18.604H67.2878V19H64.0118V18.604H64.9958V11.116H64.0118V10.72H67.2038V11.116H66.2318V14.584H67.0598C67.3318 14.584 67.5598 14.468 67.7438 14.236C67.9038 14.02 68.0638 13.52 68.2238 12.736C68.3118 12.328 68.3838 12.028 68.4398 11.836C68.4878 11.636 68.5478 11.472 68.6198 11.344C68.8598 10.84 69.2278 10.588 69.7238 10.588C70.0838 10.588 70.3638 10.688 70.5638 10.888C70.7638 11.08 70.8638 11.356 70.8638 11.716C70.8638 12.3 70.6118 12.592 70.1078 12.592C69.8598 12.592 69.6638 12.52 69.5198 12.376C69.3678 12.248 69.2918 12.056 69.2918 11.8C69.2918 11.592 69.3518 11.416 69.4718 11.272C69.5998 11.128 69.7678 11.044 69.9758 11.02C69.9198 10.98 69.8158 10.96 69.6638 10.96C69.4478 10.96 69.2678 11.068 69.1238 11.284C68.9798 11.508 68.8318 11.984 68.6798 12.712C68.5118 13.496 68.3438 14.028 68.1758 14.308C67.9998 14.58 67.7798 14.74 67.5158 14.788C68.0198 14.996 68.3718 15.156 68.5718 15.268C68.9398 15.492 69.2198 15.8 69.4118 16.192C69.5238 16.456 69.6478 16.84 69.7838 17.344C69.9678 17.952 70.0958 18.304 70.1678 18.4C70.2558 18.512 70.3598 18.568 70.4798 18.568C70.6158 18.568 70.7198 18.444 70.7918 18.196C70.8558 17.924 70.8878 17.548 70.8878 17.068H71.2358C71.2358 17.316 71.2318 17.512 71.2238 17.656C71.2158 17.8 71.1878 17.98 71.1398 18.196C71.0998 18.404 71.0398 18.568 70.9598 18.688C70.8798 18.808 70.7558 18.912 70.5878 19C70.4278 19.088 70.2318 19.132 69.9998 19.132ZM74.4797 12.58L73.3397 15.952H75.6197L74.4797 12.58ZM73.8317 18.604V19H71.2037V18.604H71.9717L74.7197 10.6H75.1517L77.8757 18.604H78.7037V19H75.0917V18.604H76.5197L75.7517 16.348H73.2077L72.4397 18.604H73.8317Z" fill="white"/>
</svg>
