<svg width="63" height="29" viewBox="0 0 63 29" fill="none" xmlns="http://www.w3.org/2000/svg">
<path fill-rule="evenodd" clip-rule="evenodd" d="M63 3.8147e-06L9.88243 0L0 14.5L9.98652 29H63V3.8147e-06ZM9 16.4999C10.1046 16.4999 11 15.6045 11 14.4999C11 13.3954 10.1046 12.4999 9 12.4999C7.89543 12.4999 7 13.3954 7 14.4999C7 15.6045 7.89543 16.4999 9 16.4999Z" fill="#E1606D"/>
<path d="M22.532 18.604V19H20.072V18.604H20.864L22.988 14.92L20.9 11.116H20.072V10.72H23.36V11.116H22.28L23.828 13.936L25.436 11.116H24.548V10.72H26.816V11.116H25.952L24.08 14.38L26.396 18.604H27.14V19H23.732V18.604H25.004L23.24 15.388L21.404 18.604H22.532ZM29.979 18.604H31.035V19H27.711V18.604H28.695V11.116H27.711V10.72H31.035V11.116H29.979V16.912L33.351 11.836V11.116H32.295V10.72H35.631V11.116H34.647V18.604H35.631V19H32.295V18.604H33.351V12.628L29.979 17.704V18.604ZM41.4167 18.604V19H37.6367V18.604H38.8847V11.116H38.4287C37.7807 11.116 37.3367 11.244 37.0967 11.5C36.8647 11.756 36.7487 12.208 36.7487 12.856V13.36H36.3647V10.72H42.6887V13.36H42.3047V12.856C42.3047 12.2 42.1847 11.748 41.9447 11.5C41.7127 11.244 41.2727 11.116 40.6247 11.116H40.1687V18.604H41.4167Z" fill="white"/>
</svg>
