<svg width="18" height="20" viewBox="0 0 18 20" fill="none" xmlns="http://www.w3.org/2000/svg">
<path d="M9 0C6.02244 0 3.6 2.36566 3.6 5.27344C3.6 8.18121 6.02244 10.5469 9 10.5469C11.9776 10.5469 14.4 8.18121 14.4 5.27344C14.4 2.36566 11.9776 0 9 0ZM9 9.375C6.68412 9.375 4.8 7.53504 4.8 5.27344C4.8 3.01184 6.68412 1.17188 9 1.17188C11.3159 1.17188 13.2 3.01184 13.2 5.27344C13.2 7.53504 11.3159 9.375 9 9.375Z" fill="#2B441D"/>
<path d="M15.7186 13.992C14.2402 12.5261 12.2804 11.7188 10.2 11.7188H7.8C5.71968 11.7188 3.75976 12.5261 2.28136 13.992C0.8102 15.4507 0 17.3763 0 19.4141C0 19.7377 0.26864 20 0.6 20H17.4C17.7314 20 18 19.7377 18 19.4141C18 17.3763 17.1898 15.4507 15.7186 13.992ZM1.2264 18.8281C1.527 15.5045 4.36044 12.8906 7.8 12.8906H10.2C13.6396 12.8906 16.473 15.5045 16.7736 18.8281H1.2264Z" fill="#2B441D"/>
</svg>
