<svg width="13" height="8" viewBox="0 0 13 8" fill="none" xmlns="http://www.w3.org/2000/svg">
<path d="M12.4899 0.324053H10.3803C10.2942 0.324053 10.2097 0.347397 10.1358 0.391602C10.0619 0.435807 10.0014 0.499218 9.96071 0.575087C9.96071 0.575087 9.11933 2.12461 8.84907 2.64652C8.12201 4.05051 7.6512 3.60975 7.6512 2.95814V0.711394C7.6512 0.523648 7.57661 0.343592 7.44386 0.210836C7.3111 0.0780794 7.13104 0.00349773 6.9433 0.00349773H5.35719C5.14119 -0.0125623 4.92466 0.0268645 4.72819 0.118034C4.53171 0.209203 4.3618 0.349087 4.2346 0.524401C4.2346 0.524401 5.04001 0.394178 5.04001 1.47939C5.04001 1.74849 5.05387 2.52262 5.0665 3.17192C5.06888 3.2676 5.04184 3.36171 4.98904 3.44154C4.93624 3.52137 4.86022 3.58308 4.77123 3.61833C4.68225 3.65358 4.58459 3.66068 4.49145 3.63867C4.3983 3.61666 4.31415 3.56659 4.25036 3.49524C3.60114 2.59229 3.06337 1.61422 2.64874 0.582293C2.61313 0.505099 2.55612 0.439738 2.48449 0.393966C2.41285 0.348193 2.32959 0.32393 2.24457 0.324053C1.78708 0.324053 0.871582 0.324053 0.327901 0.324053C0.27518 0.323695 0.22316 0.33614 0.17631 0.360321C0.12946 0.384503 0.0891805 0.419696 0.0589326 0.462878C0.0286846 0.50606 0.00937226 0.555941 0.0026546 0.608233C-0.00406306 0.660526 0.00201483 0.713668 0.0203661 0.763093C0.602361 2.3595 3.10941 7.37628 5.97095 7.37628H7.17537C7.30157 7.37628 7.4226 7.32615 7.51183 7.23691C7.60106 7.14768 7.6512 7.02665 7.6512 6.90045V6.17318C7.6512 6.08195 7.67789 5.99271 7.72798 5.91646C7.77808 5.8402 7.84939 5.78028 7.93312 5.74405C8.01686 5.70783 8.10936 5.6969 8.19924 5.7126C8.28911 5.72831 8.37243 5.76996 8.43892 5.83243L9.88052 7.18691C10.01 7.30855 10.181 7.37627 10.3586 7.37628H12.2517C13.1647 7.37628 13.1647 6.74271 12.6669 6.25245C12.3166 5.90742 11.0524 4.5749 11.0524 4.5749C10.9441 4.46274 10.8796 4.31556 10.8704 4.15996C10.8611 4.00435 10.9079 3.85058 11.0022 3.72643C11.4108 3.18869 12.0791 2.30845 12.3626 1.93136C12.75 1.41595 13.4513 0.324053 12.4899 0.324053Z" fill="#2B441D"/>
</svg>
